<svg xmlns="http://www.w3.org/2000/svg" width="48.566" height="48.568" viewBox="0 0 48.566 48.568">
  <g id="audio-call" transform="translate(0)">
    <g id="technology">
      <g id="Group_7722" data-name="Group 7722" transform="translate(0 0)">
        <path id="Path_7451" data-name="Path 7451" d="M47.328,35.822l-6.038-6.038a4.274,4.274,0,0,0-6.038,0l-2.744,2.744a3.238,3.238,0,0,1-4.574,0l-11.9-11.906a3.233,3.233,0,0,1,0-4.574l2.744-2.744a4.267,4.267,0,0,0,0-6.039L12.746,1.249a4.273,4.273,0,0,0-6.033,0l-2.2,2.181a15.413,15.413,0,0,0,0,21.772L23.36,44.055a15.387,15.387,0,0,0,21.772,0l2.2-2.2A4.274,4.274,0,0,0,47.328,35.822ZM8.721,3.261a1.425,1.425,0,0,1,2.014,0L16.771,9.28a1.422,1.422,0,0,1,0,2.013L15.765,12.3,7.72,4.254ZM25.373,42.043,6.525,23.185A12.512,12.512,0,0,1,5.74,6.3l8.022,8.022a6.075,6.075,0,0,0,.264,8.315l11.9,11.9h0a6.074,6.074,0,0,0,8.315.265l8.022,8.022A12.488,12.488,0,0,1,25.373,42.043Zm19.943-2.2-1.006,1.006-8.05-8.05L37.265,31.8a1.425,1.425,0,0,1,2.013,0l6.038,6.038A1.425,1.425,0,0,1,45.316,39.847Z" transform="translate(-0.01 0)" fill="#4dd0e1"/>
        <path id="Path_7452" data-name="Path 7452" d="M47.328,35.822l-6.038-6.038a4.274,4.274,0,0,0-6.038,0l-2.744,2.744a3.238,3.238,0,0,1-4.574,0l-11.9-11.906a3.233,3.233,0,0,1,0-4.574l2.744-2.744a4.267,4.267,0,0,0,0-6.039L12.746,1.249a4.273,4.273,0,0,0-6.033,0l-2.2,2.181a15.413,15.413,0,0,0,0,21.772L23.36,44.055a15.387,15.387,0,0,0,21.772,0l2.2-2.2A4.274,4.274,0,0,0,47.328,35.822Z" transform="translate(-0.011 0)" fill="#4dd0e1"/>
      </g>
    </g>
    <path id="Path_7453" data-name="Path 7453" d="M827.128,545.189l8.243,8.445-3.059,3.632-9.462-9.214Z" transform="translate(-816.447 -543.673)" fill="#e0f7fa"/>
    <g id="technology-2" data-name="technology">
      <path id="Path_7454" data-name="Path 7454" d="M11.852,12.762,16,10.321l8.317,9.234-3.127,2.871Z" transform="translate(22.715 19.783)" fill="#e0f7fa"/>
      <g id="Group_7722-2" data-name="Group 7722" transform="translate(0 0)">
        <path id="Path_7451-2" data-name="Path 7451" d="M47.328,35.822l-6.038-6.038a4.274,4.274,0,0,0-6.038,0l-2.744,2.744a3.238,3.238,0,0,1-4.574,0l-11.9-11.906a3.233,3.233,0,0,1,0-4.574l2.744-2.744a4.267,4.267,0,0,0,0-6.039L12.746,1.249a4.273,4.273,0,0,0-6.033,0l-2.2,2.181a15.413,15.413,0,0,0,0,21.772L23.36,44.055a15.387,15.387,0,0,0,21.772,0l2.2-2.2A4.274,4.274,0,0,0,47.328,35.822ZM8.721,3.261a1.425,1.425,0,0,1,2.014,0L16.771,9.28a1.422,1.422,0,0,1,0,2.013L15.765,12.3,7.72,4.254ZM25.373,42.043,6.525,23.185A12.512,12.512,0,0,1,5.74,6.3l8.022,8.022a6.075,6.075,0,0,0,.264,8.315l11.9,11.9h0a6.074,6.074,0,0,0,8.315.265l8.022,8.022A12.488,12.488,0,0,1,25.373,42.043Zm19.943-2.2-1.006,1.006-8.05-8.05L37.265,31.8a1.425,1.425,0,0,1,2.013,0l6.038,6.038A1.425,1.425,0,0,1,45.316,39.847Z" transform="translate(-0.01 0)" fill="#4e2a73"/>
        <path id="Path_7452-2" data-name="Path 7452" d="M47.328,35.822l-6.038-6.038a4.274,4.274,0,0,0-6.038,0l-2.744,2.744a3.238,3.238,0,0,1-4.574,0l-11.9-11.906a3.233,3.233,0,0,1,0-4.574l2.744-2.744a4.267,4.267,0,0,0,0-6.039L12.746,1.249a4.273,4.273,0,0,0-6.033,0l-2.2,2.181a15.413,15.413,0,0,0,0,21.772L23.36,44.055a15.387,15.387,0,0,0,21.772,0l2.2-2.2A4.274,4.274,0,0,0,47.328,35.822ZM8.721,3.261a1.425,1.425,0,0,1,2.014,0L16.771,9.28a1.422,1.422,0,0,1,0,2.013L15.765,12.3,7.72,4.254ZM25.373,42.043,6.525,23.185A12.512,12.512,0,0,1,5.74,6.3l8.022,8.022a6.075,6.075,0,0,0,.264,8.315l11.9,11.9h0a6.074,6.074,0,0,0,8.315.265l8.022,8.022A12.488,12.488,0,0,1,25.373,42.043Zm19.943-2.2-1.006,1.006-8.05-8.05L37.265,31.8a1.425,1.425,0,0,1,2.013,0l6.038,6.038A1.425,1.425,0,0,1,45.316,39.847Z" transform="translate(-0.011 0)" fill="#4e2a73"/>
      </g>
    </g>
  </g>
</svg>
