<svg id="calendar" xmlns="http://www.w3.org/2000/svg" width="19.554" height="19.553" viewBox="0 0 19.554 19.553">
  <path id="Path_497" data-name="Path 497" d="M17.313,60.592H2.241A2.242,2.242,0,0,1,0,58.351V44.908a2.242,2.242,0,0,1,2.241-2.24H17.313a2.242,2.242,0,0,1,2.241,2.24V58.351A2.242,2.242,0,0,1,17.313,60.592ZM2.241,43.89a1.02,1.02,0,0,0-1.018,1.018V58.351A1.02,1.02,0,0,0,2.241,59.37H17.313a1.02,1.02,0,0,0,1.018-1.018V44.908a1.02,1.02,0,0,0-1.018-1.018Zm0,0" transform="translate(0 -41.038)" fill="#4dd0e1"/>
  <path id="Path_498" data-name="Path 498" d="M18.942,171.89H.611a.611.611,0,0,1,0-1.222H18.942a.611.611,0,0,1,0,1.222Zm0,0" transform="translate(0 -164.15)" fill="#4dd0e1"/>
  <path id="Path_499" data-name="Path 499" d="M107.279,4.888a.611.611,0,0,1-.611-.611V.611a.611.611,0,1,1,1.222,0V4.277A.611.611,0,0,1,107.279,4.888Zm0,0" transform="translate(-102.594)" fill="#4dd0e1"/>
  <path id="Path_500" data-name="Path 500" d="M373.943,4.888a.611.611,0,0,1-.611-.611V.611a.611.611,0,0,1,1.222,0V4.277A.611.611,0,0,1,373.943,4.888Zm0,0" transform="translate(-359.074)" fill="#4dd0e1"/>
</svg>
