<svg xmlns="http://www.w3.org/2000/svg" width="587.261" height="587.261" viewBox="0 0 587.261 587.261"><g transform="translate(-2628 553)" opacity="0.3"><g transform="translate(2628 -553)"><circle cx="283.5" cy="283.5" r="283.5" transform="translate(9.344 9.344)" fill="#4dd0e1"/><path d="M494,131.231v.2a214.346,214.346,0,0,1-9.494,51.777c-12.137,26.72-43.751,46.3-68.514,58.726-11.256,5.579-12.822,17.716-15.856,34.453v.1a150.673,150.673,0,0,1-13.507,43.751A281.708,281.708,0,0,1,348.46,367.8,241.5,241.5,0,0,1,249.6,388.744,244.036,244.036,0,0,1,57.472,295.272,118.333,118.333,0,0,1,83.7,241.929a386.7,386.7,0,0,1,51.581-41.7,580.4,580.4,0,0,0-71.156-7.243c-41.5,0-58.335-27.112-59.118-52.756,0-2.545.1-5.187.2-7.732,1.762-20.065,13.018-37.389,29.559-37.389,39.151,0,29.363,39.151,39.151,39.151H190.878a52.012,52.012,0,0,1,35.529,12.528A26.623,26.623,0,0,1,240.8,136.516a79.857,79.857,0,0,1,49.917,4.7,105.08,105.08,0,0,1,7.243-62.935,102.144,102.144,0,0,1,187.336.294,1.652,1.652,0,0,0,.2.489A241.009,241.009,0,0,1,494,131.231Z" transform="translate(44.026 149.578)" fill="#e0f7fa"/><path d="M135.372,89.609a386.7,386.7,0,0,0-51.581,41.7A118.333,118.333,0,0,0,57.56,184.647,242.735,242.735,0,0,1,5,33.427c0-1.272,0-2.545.1-3.817.783,25.644,17.618,52.756,59.118,52.756A580.408,580.408,0,0,1,135.372,89.609Z" transform="translate(43.938 260.203)" fill="#4e2a73"/><path d="M485.116,184.222a102.144,102.144,0,0,0-187.336-.294,105.081,105.081,0,0,0-7.243,62.935,79.858,79.858,0,0,0-49.917-4.7,26.622,26.622,0,0,0-14.388,10.277A52.012,52.012,0,0,0,190.7,239.914H73.74c-9.788,0,0-39.151-39.151-39.151-16.541,0-27.8,17.324-29.559,37.389a244.633,244.633,0,0,1,480.086-53.93Z" transform="translate(44.202 43.929)" fill="#addc47"/><path d="M185.936,41.336A244.751,244.751,0,0,1,40.1,265.082a281.708,281.708,0,0,0,38.172-47.568,150.671,150.671,0,0,0,13.507-43.751v-.1c3.034-16.737,4.6-28.874,15.856-34.453,24.763-12.43,56.377-32.006,68.514-58.726a214.349,214.349,0,0,0,9.494-51.777Q185.936,35.023,185.936,41.336Z" transform="translate(352.386 252.294)" fill="#4e2a73"/><g transform="translate(0)"><path d="M293.63,0C131.463,0,0,131.463,0,293.63s131.463,293.63,293.63,293.63S587.261,455.8,587.261,293.63C587.077,131.539,455.722.183,293.63,0Zm0,567.685c-151.356,0-274.055-122.7-274.055-274.055S142.274,19.575,293.63,19.575s274.055,122.7,274.055,274.055C567.513,444.915,444.915,567.513,293.63,567.685Z" transform="translate(0)" fill="#4e2a73"/><path d="M258.5,4c-136.7.169-248.9,108.209-254.235,244.809C4.2,250.043,4,251.207,4,252.46c0,.548.117,1.047.127,1.6,0,1.478-.108,2.936-.108,4.424C4.276,398.918,118.059,512.7,258.5,512.959c140.478-.162,254.318-114,254.48-254.48q0-6.538-.333-12.988c.1-1.194.166-2.271.215-3.064.117-2.163.117-4.218.117-6.382a116.169,116.169,0,0,0-9.132-45.023A254.9,254.9,0,0,0,258.5,4ZM225.121,25.983a92.983,92.983,0,0,0-25.35,66.106,72.879,72.879,0,0,0,29.363,61.4c11.354,10.16,19.575,17.5,19.575,36.479,0,24.048-26.153,41.108-42.508,49.447-2.134-.186-4.209-.509-6.431-.509H87.213c-.245-.91-.489-1.889-.7-2.741-2.966-11.814-9.083-36.41-42.85-36.41a31.458,31.458,0,0,0-13.37,3.191A235.492,235.492,0,0,1,225.121,25.983ZM28.076,303.63a72.282,72.282,0,0,0,44.945,13.576,414.148,414.148,0,0,1,45.865,3.807,315.282,315.282,0,0,0-33.278,28.5,118.322,118.322,0,0,0-22.864,38.5A230.363,230.363,0,0,1,28.076,303.63Zm372.6,141.677c1.37-2.183,2.623-4.3,3.612-6.274A168.014,168.014,0,0,0,419.2,389.772c2.78-15.66,4.365-21.807,10.062-24.655a206.519,206.519,0,0,0,53.372-36.4,235.8,235.8,0,0,1-81.962,116.591ZM485.4,197.8a233.754,233.754,0,0,1,7.625,47.637,208.093,208.093,0,0,1-8.535,48.185c-8.594,18.92-30.117,37.1-63.972,54.018a29.363,29.363,0,0,0-10.052,8.192,50.211,50.211,0,0,0-20.349-18.068l-78.3-39.151a9.792,9.792,0,0,0-8.75,17.52l78.3,39.151c8.809,4.375,18.665,12.313,17.882,34.707a140.277,140.277,0,0,1-12.479,40.247,256.336,256.336,0,0,1-35.187,43.829,234.248,234.248,0,0,1-274.5-66.811,107.439,107.439,0,0,1,22.512-44.045,363.2,363.2,0,0,1,50.279-40.521c14.417-9.964,25.5-16.639,25.614-16.7a9.788,9.788,0,1,0-10.081-16.776c-.431.254-10.14,6.107-23.442,15.181a572.194,572.194,0,0,0-68.944-6.763,49.389,49.389,0,0,1-38.377-14.4A45.1,45.1,0,0,1,23.7,254.095c0-2.192.069-4.375.166-6.548,1.458-15.925,9.739-28.218,19.791-28.218,17.217,0,20.5,8.153,23.853,21.592,1.644,6.558,4.395,17.559,15.3,17.559H199.771a45.091,45.091,0,0,1,22.835,5.638,45.1,45.1,0,0,0-1.958,6.3c-4.013,17.618,1.449,39.484,15.416,63.933-3.064,8.476-6.3,15.768-7.145,17.451-8.594,16.3-35.02,34.893-62.984,44.2a9.8,9.8,0,1,0,6.2,18.6c33.278-11.1,63.062-32.671,74.171-53.832.568-1.126,1.566-3.318,2.8-6.186a408.644,408.644,0,0,0,54.106,59.91,9.788,9.788,0,0,0,13.311-14.349C252.38,340.647,234.791,296.4,239.7,274.8a18.244,18.244,0,0,1,12.92-14.476c31.047-9.592,75.365,20.721,75.776,21.024a9.788,9.788,0,1,0,11.178-16.071,181.161,181.161,0,0,0-31.066-16.58,95.851,95.851,0,0,1,7.311-52.051A92.983,92.983,0,0,1,368.315,146.9a90.712,90.712,0,0,1,70.55,2.711A93.707,93.707,0,0,1,485.4,197.8Zm-38.309-65.94a110.141,110.141,0,0,0-85.642-3.279,112.372,112.372,0,0,0-63.5,60.116,115.661,115.661,0,0,0-9.856,53.225,77.724,77.724,0,0,0-41.294-.3,38.671,38.671,0,0,0-12.724,6.685c-.763-.48-1.527-.979-2.31-1.419,23.588-16.081,36.528-35.794,36.528-56.915A61.868,61.868,0,0,0,242.23,138.9a53.617,53.617,0,0,1-22.884-46.814,74.093,74.093,0,0,1,41.108-68.465A235,235,0,0,1,460.887,139.442a110.921,110.921,0,0,0-13.8-7.625Z" transform="translate(35.133 35.151)" fill="#4e2a73"/><path d="M75.449,45.4A9.79,9.79,0,1,1,61.6,59.242a9.788,9.788,0,0,0-13.84,13.84A29.363,29.363,0,1,0,89.289,31.562,9.788,9.788,0,1,0,75.449,45.4Z" transform="translate(395.554 251.096)" fill="#4e2a73"/></g></g></g></svg>