<svg xmlns="http://www.w3.org/2000/svg" width="67.493" height="67.493" viewBox="0 0 67.493 67.493">
  <g id="clock" transform="translate(0 -0.266)">
    <g id="Group_7590" data-name="Group 7590" transform="translate(0 0)">
      <g id="Group_7531" data-name="Group 7531">
        <path id="Path_1489" data-name="Path 1489" d="M124.746,91a33.746,33.746,0,1,0,33.746,33.746A33.789,33.789,0,0,0,124.746,91Zm21.563,50.971-2.039-2.039a3.068,3.068,0,1,0-4.339,4.339l2.039,2.039a27.483,27.483,0,0,1-14.157,5.877v-2.9a3.068,3.068,0,1,0-6.136,0v2.9a27.481,27.481,0,0,1-14.156-5.877l2.039-2.039a3.068,3.068,0,0,0-4.339-4.339l-2.039,2.039a27.48,27.48,0,0,1-5.877-14.156h2.9a3.068,3.068,0,1,0,0-6.136h-2.9a27.481,27.481,0,0,1,5.877-14.156l2.039,2.039a3.068,3.068,0,0,0,4.339-4.339l-2.039-2.039a27.481,27.481,0,0,1,14.156-5.877v2.9a3.068,3.068,0,1,0,6.136,0v-2.9a27.481,27.481,0,0,1,14.156,5.877l-2.039,2.039a3.068,3.068,0,0,0,4.339,4.339l2.039-2.039a27.478,27.478,0,0,1,5.877,14.156h-2.9a3.058,3.058,0,1,0,0,6.115h2.9A27.549,27.549,0,0,1,146.309,141.971Z" transform="translate(-91 -90.734)" fill="#4dd0e1"/>
      </g>
    </g>
    <g id="Group_7534" data-name="Group 7534" transform="translate(31.803 24.015)">
      <g id="Group_7533" data-name="Group 7533">
        <path id="Path_1490" data-name="Path 1490" d="M248.378,193.524l-3.4-3.4V182.99a1.99,1.99,0,1,0-3.98,0v7.961a1.99,1.99,0,0,0,.583,1.407l3.98,3.98a1.99,1.99,0,0,0,2.815-2.815Z" transform="translate(-241 -181)" fill="#4dd0e1"/>
      </g>
    </g>
  </g>
</svg>
