<svg xmlns="http://www.w3.org/2000/svg" xmlns:xlink="http://www.w3.org/1999/xlink" width="23.208" height="15.819" viewBox="0 0 23.208 15.819">
  <defs>
    <clipPath id="clip-path">
      <rect width="5.802" height="6.369" fill="none"/>
    </clipPath>
  </defs>
  <g id="Group_1" data-name="Group 1" transform="translate(-364.327 -313.002)">
    <g id="Repeat_Grid_1" data-name="Repeat Grid 1" transform="translate(373.031 318.463)" clip-path="url(#clip-path)">
      <g transform="translate(-373.031 -318.463)">
        <path id="Path_1" data-name="Path 1" d="M197.668,205.133a.453.453,0,0,0-.641,0l-1.674,1.674v-4.368a.453.453,0,1,0-.907,0v4.368l-1.674-1.674a.453.453,0,0,0-.641.641l2.448,2.448a.453.453,0,0,0,.641,0l2.448-2.448A.453.453,0,0,0,197.668,205.133Z" transform="translate(181.031 116.478)" fill="#4dd0e1"/>
      </g>
    </g>
    <path id="Path_2" data-name="Path 2" d="M21.815,88.5a5.24,5.24,0,0,0-3.108-1.638,7.982,7.982,0,0,0-2.72-3.761,7.839,7.839,0,0,0-4.769-1.6,7.931,7.931,0,0,0-7.552,5.552,5.257,5.257,0,0,0,1.59,10.268H17.951A5.256,5.256,0,0,0,21.815,88.5Zm-3.863,7.914H5.256a4.35,4.35,0,0,1-1.842-8.291,7.963,7.963,0,0,0,.154,3.305.453.453,0,1,0,.877-.23,7.052,7.052,0,0,1-.026-3.471c.016-.063.032-.125.049-.187a7.005,7.005,0,0,1,13.462-.132.453.453,0,0,0,.4.322,4.35,4.35,0,0,1-.375,8.683Z" transform="translate(364.327 231.503)" fill="#4dd0e1"/>
  </g>
</svg>
