<svg xmlns="http://www.w3.org/2000/svg" width="11.945" height="11.942" viewBox="0 0 11.945 11.942">
  <g id="Group_7618" data-name="Group 7618" transform="translate(0 0)">
    <path id="Path_1537" data-name="Path 1537" d="M463.911,223.935q-2.219,0-4.439,0a1.4,1.4,0,0,1-1.5-1.488c-.01-1.517,0-3.034,0-4.551q0-2.145,0-4.29a1.428,1.428,0,0,1,1.6-1.611q1.511,0,3.022,0c.473,0,.745.218.749.589s-.27.6-.736.6c-.97,0-1.94,0-2.91,0-.422,0-.53.1-.531.527q0,4.253,0,8.505c0,.415.112.518.541.519q4.234,0,8.468,0c.44,0,.541-.1.542-.555,0-.957,0-1.915,0-2.872,0-.476.214-.744.589-.749s.6.267.6.734c0,1.032.005,2.064,0,3.1a1.42,1.42,0,0,1-1.559,1.541Z" transform="translate(-457.968 -211.993)" fill="#4dd0e1"/>
    <path id="Path_1538" data-name="Path 1538" d="M534.12,214.1l-3.947,3.954c-.132.132-.258.269-.4.395a.656.656,0,1,1-.936-.918c.107-.12.227-.23.341-.344l3.664-3.665c.092-.092.178-.191.321-.344-.491,0-.908,0-1.325,0-.439,0-.7-.232-.7-.6s.265-.594.7-.6q1.379-.005,2.759,0c.491,0,.711.216.713.7q.007,1.4,0,2.8a.606.606,0,0,1-.583.68c-.363.009-.6-.26-.608-.692S534.12,214.626,534.12,214.1Z" transform="translate(-523.371 -211.979)" fill="#4dd0e1"/>
  </g>
</svg>
