<svg xmlns="http://www.w3.org/2000/svg" xmlns:xlink="http://www.w3.org/1999/xlink" width="49.469" height="49.468" viewBox="0 0 49.469 49.468">
  <defs>
    <linearGradient id="linear-gradient" x1="0.5" x2="0.5" y2="1" gradientUnits="objectBoundingBox">
      <stop offset="0" stop-color="#59f675"/>
      <stop offset="1" stop-color="#0dbc28"/>
    </linearGradient>
  </defs>
  <g id="facetime" transform="translate(0)">
    <rect id="Rectangle_2221" data-name="Rectangle 2221" width="40.833" height="25.278" transform="translate(4.453 12.639)" fill="#fff"/>
    <path id="Path_7450" data-name="Path 7450" d="M-281.7,125.924h-26.025a11.756,11.756,0,0,0-11.721,11.722v26.026a11.756,11.756,0,0,0,11.721,11.721H-281.7a11.756,11.756,0,0,0,11.722-11.721V137.646A11.756,11.756,0,0,0-281.7,125.924Zm-6.232,30.657a4.733,4.733,0,0,1-3.235,4.561,4.97,4.97,0,0,1-1.632.243q-3.536,0-7.071,0v-.007c-2.473,0-4.947.027-7.419-.008a4.7,4.7,0,0,1-4.53-4.652q0-6.046,0-12.093a4.7,4.7,0,0,1,4.641-4.686q7.276-.02,14.552,0a4.7,4.7,0,0,1,4.7,4.755c.012,2.33,0,4.66,0,6.989C-287.928,153.315-287.924,154.948-287.93,156.581Zm10.328-6.7v.82h0q0,3.833,0,7.666a1.87,1.87,0,0,1-1.243,1.882,1.851,1.851,0,0,1-1.917-.352q-2.388-2-4.772-4.005c-.2-.171-.41-.341-.612-.514a2.052,2.052,0,0,1-.76-1.615q-.008-3.116,0-6.231a1.986,1.986,0,0,1,.738-1.581q2.309-1.917,4.627-3.824c.258-.213.518-.424.774-.638a1.841,1.841,0,0,1,2.083-.292,1.8,1.8,0,0,1,1.088,1.755Q-277.6,146.42-277.6,149.884Z" transform="translate(319.445 -125.924)" fill="url(#linear-gradient)"/>
  </g>
</svg>
