<svg id="Group_7546" data-name="Group 7546" xmlns="http://www.w3.org/2000/svg" width="40.637" height="53.838" viewBox="0 0 40.637 53.838">
  <path id="Path_1514" data-name="Path 1514" d="M88.928,10.746l-.055-.055v-.055L78.51.273,78.455.218A.053.053,0,0,1,78.4.164a.053.053,0,0,1-.055-.055A.9.9,0,0,0,77.8,0H52.109a3.63,3.63,0,0,0-2.564,1.036l-.055.055A3.81,3.81,0,0,0,48.4,3.709V50.128a3.709,3.709,0,0,0,1.091,2.618,3.81,3.81,0,0,0,2.618,1.091H85.328a3.709,3.709,0,0,0,2.618-1.091,3.81,3.81,0,0,0,1.091-2.618V11.291A1.614,1.614,0,0,0,88.928,10.746Z" transform="translate(-48.4)" fill="#e0f7fa"/>
  <path id="Path_1515" data-name="Path 1515" d="M261.469,27.493l8.395,8.394H263.7a2.023,2.023,0,0,1-1.56-.669,2.317,2.317,0,0,1-.669-1.56Z" transform="translate(-231.718 -24.824)" fill="#4dd0e1"/>
  <path id="Path_1513" data-name="Path 1513" d="M88.928,10.746l-.055-.055v-.055L78.51.273,78.455.218A.053.053,0,0,1,78.4.164a.053.053,0,0,1-.055-.055A.9.9,0,0,0,77.8,0H52.109a3.63,3.63,0,0,0-2.564,1.036l-.055.055A3.81,3.81,0,0,0,48.4,3.709V50.128a3.709,3.709,0,0,0,1.091,2.618,3.81,3.81,0,0,0,2.618,1.091H85.328a3.709,3.709,0,0,0,2.618-1.091,3.81,3.81,0,0,0,1.091-2.618V11.291A1.614,1.614,0,0,0,88.928,10.746ZM78.837,3.927,85,10.091H80.473A1.486,1.486,0,0,1,79.328,9.6a1.7,1.7,0,0,1-.491-1.145Zm7.855,46.2a1.5,1.5,0,0,1-1.418,1.418H52.109a1.568,1.568,0,0,1-.982-.382,1.314,1.314,0,0,1-.382-.982V3.655a1.366,1.366,0,0,1,.436-.982l.055-.055a1.547,1.547,0,0,1,.927-.382H76.6V8.4a3.961,3.961,0,0,0,1.2,2.836,4.045,4.045,0,0,0,2.836,1.145h6.055Z" transform="translate(-48.4)" fill="#4e2a73"/>
</svg>
