<svg id="Layer_1" xmlns="http://www.w3.org/2000/svg" fill="#333" style="enable-background:new 0 0 285.5 285.5;" viewBox="0 0 285.5 285.5" width="20px" height="20px" x="0px" y="0px">
    <g id="XMLID_791_">
        <path class="cyan-color" fill="#4dd0e1" id="XMLID_792_" d="M 142.75 125.5 c 34.601 0 62.751 -28.149 62.751 -62.75 S 177.351 0 142.75 0 S 79.999 28.149 79.999 62.75 S 108.149 125.5 142.75 125.5 Z M 142.75 30 c 18.059 0 32.751 14.691 32.751 32.75 S 160.809 95.5 142.75 95.5 s -32.751 -14.691 -32.751 -32.75 S 124.691 30 142.75 30 Z" />
        <path id="XMLID_795_" d="M 142.75 155.5 c -63.411 0 -115 51.589 -115 115 c 0 8.284 6.716 15 15 15 h 200 c 8.284 0 15 -6.716 15 -15 C 257.75 207.089 206.161 155.5 142.75 155.5 Z M 59.075 255.5 c 7.106 -39.739 41.923 -70 83.675 -70 s 76.569 30.261 83.675 70 H 59.075 Z" />
    </g>
</svg>