<svg xmlns="http://www.w3.org/2000/svg" width="24" height="24" viewBox="0 0 24 24">
  <g id="Group_1" data-name="Group 1" transform="translate(-0.034 0.424)">
    <rect id="Rectangle_2163" data-name="Rectangle 2163" width="24" height="24" transform="translate(0.034 -0.424)" fill="none"/>
    <g id="Group_7535" data-name="Group 7535" transform="translate(1.396 3.888)">
      <path id="Path_1505" data-name="Path 1505" d="M1.112,0H15.234a1.112,1.112,0,0,1,1.112,1.112V9.378a1.112,1.112,0,0,1-1.112,1.112H1.112A1.112,1.112,0,0,1,0,9.378V1.112A1.112,1.112,0,0,1,1.112,0Z" transform="translate(5.309 0.264) rotate(17)" fill="#e0f7fa"/>
      <path id="Path_1501" data-name="Path 1501" d="M1.165,0h14.8a1.165,1.165,0,0,1,1.165,1.165v8.66A1.165,1.165,0,0,1,15.96,10.99H1.165A1.165,1.165,0,0,1,0,9.825V1.165A1.165,1.165,0,0,1,1.165,0Z" transform="translate(0 4.388)" fill="#4dd0e1"/>
      <path id="Path_1491" data-name="Path 1491" d="M702.281,346.678a1.358,1.358,0,0,1-.674-.18,1.422,1.422,0,0,1-.317.131,1.388,1.388,0,0,1-.908-.06,1.4,1.4,0,0,1,.543-2.681,1.374,1.374,0,0,1,.365.05,1.426,1.426,0,0,1,.317.131,1.359,1.359,0,0,1,.674-.18,1.4,1.4,0,1,1,0,2.791Zm0-2.035a.629.629,0,0,0-.248.051.649.649,0,0,0-.341.341.633.633,0,0,0,0,.5.649.649,0,0,0,.341.341.633.633,0,0,0,.5,0,.648.648,0,0,0,.341-.341.632.632,0,0,0,0-.5.648.648,0,0,0-.341-.341A.629.629,0,0,0,702.281,344.643Zm-1.357,0a.629.629,0,0,0-.248.051.649.649,0,0,0-.341.341.633.633,0,0,0,0,.5.649.649,0,0,0,.341.341.629.629,0,0,0,.248.051.581.581,0,0,0,.116-.012,1.35,1.35,0,0,1,0-1.254A.613.613,0,0,0,700.924,344.643Z" transform="translate(-688.307 -337.732)" fill="#4e2a73"/>
      <path id="Path_1492" data-name="Path 1492" d="M699.963,342.965a1.357,1.357,0,1,0,.682,2.527,1.329,1.329,0,0,0,.674.186,1.357,1.357,0,0,0,0-2.713,1.329,1.329,0,0,0-.674.186,1.352,1.352,0,0,0-.682-.186m0,2.035a.678.678,0,1,1,0-1.357.8.8,0,0,1,.174.025,1.316,1.316,0,0,0,0,1.307.628.628,0,0,1-.174.025m1.357,0a.678.678,0,1,1,.678-.678.681.681,0,0,1-.678.678m-1.357-2.113a1.412,1.412,0,0,1,.376.051.432.432,0,0,0,.6,0,1.378,1.378,0,0,1,.377-.053,1.434,1.434,0,1,1,0,2.869,1.378,1.378,0,0,1-.377-.053.432.432,0,0,0-.6,0,1.427,1.427,0,0,1-.934-.062,1.434,1.434,0,0,1,.558-2.756Zm.057.838a.455.455,0,0,0-.057,0,.591.591,0,0,0-.233.047.61.61,0,0,0-.321.321.593.593,0,0,0,0,.465.61.61,0,0,0,.321.321.59.59,0,0,0,.233.047.529.529,0,0,0,.058,0,1.384,1.384,0,0,1,0-1.194Zm1.3,1.2a.591.591,0,0,0,.233-.047.61.61,0,0,0,.321-.321.594.594,0,0,0,0-.465.61.61,0,0,0-.321-.321.594.594,0,0,0-.465,0,.61.61,0,0,0-.321.321.595.595,0,0,0,0,.465.61.61,0,0,0,.321.321A.59.59,0,0,0,701.32,344.922Z" transform="translate(-687.345 -336.771)" fill="#4e2a73"/>
      <path id="Path_1493" data-name="Path 1493" d="M427.507,201.732H412.592a1.055,1.055,0,0,1-1.056-1.056v-8.814a1.041,1.041,0,0,1,.083-.409,1.065,1.065,0,0,1,.973-.647h2.594l1.162-3.675h0a1.22,1.22,0,0,1,.458-.6.923.923,0,0,1,.5-.142,1.153,1.153,0,0,1,.36.059l14.218,4.491a1.06,1.06,0,0,1,.382.184.867.867,0,0,1,.228.27,1.2,1.2,0,0,1,.078.869l-2.655,8.4a1.047,1.047,0,0,1-1,.738,4.025,4.025,0,0,1-.546-.122,1.065,1.065,0,0,1-.357.323,1.043,1.043,0,0,1-.241.1A1.058,1.058,0,0,1,427.507,201.732Zm-14.914-10.17a.3.3,0,0,0-.3.3v8.814a.3.3,0,0,0,.3.3H427.5a.3.3,0,0,0,.3-.3v-.039h0v-8.775a.3.3,0,0,0-.3-.3Zm15.967,8.986.266.083h0a.278.278,0,0,0,.088.014.31.31,0,0,0,.178-.058.293.293,0,0,0,.111-.15h0l1.622-5.133-2.266-.717Zm0-6.754,2.492.786.386-1.22-2.878-.907Zm-.022-2.14,3.13.986.191-.608a.359.359,0,0,0-.02-.255.27.27,0,0,0-.176-.122h0l-14.219-4.488h0a.289.289,0,0,0-.09-.014.307.307,0,0,0-.177.058.29.29,0,0,0-.11.15l-.191.608,8.99,2.84h1.644a1.044,1.044,0,0,1,.677.249A1.064,1.064,0,0,1,428.537,191.654Zm-12.559-.844h.627l-.571-.181Zm3.13,0h4.246l-6.708-2.117-.386,1.216Z" transform="translate(-411.497 -186.346)" fill="#4e2a73"/>
      <path id="Path_1494" data-name="Path 1494" d="M416.35,185.463a.973.973,0,0,0-.926.719l-1.17,3.7h-2.622a1.022,1.022,0,0,0-1.017,1.017v8.814a1.017,1.017,0,0,0,1.017,1.017h14.914a1.011,1.011,0,0,0,.848-.459,4.751,4.751,0,0,0,.562.128,1.008,1.008,0,0,0,.968-.711l2.655-8.4a.982.982,0,0,0-.662-1.274L416.7,185.52a1.111,1.111,0,0,0-.348-.057m14.381,6.265-3.189-1.005a1.016,1.016,0,0,0-1-.835H424.9l-9.033-2.854.2-.645a.341.341,0,0,1,.324-.235.329.329,0,0,1,.1.016l14.219,4.488a.32.32,0,0,1,.223.426l-.2.645m-8.086-1.845h-4.5l-2.891-.914.409-1.29,6.986,2.2m-6.75,0h-.931l.083-.269.848.269m10.989,9.827h0a.341.341,0,0,1-.339.339h-14.91a.341.341,0,0,1-.339-.339V190.9a.341.341,0,0,1,.339-.339h14.914a.341.341,0,0,1,.339.339v8.814m3.23-6.047-2.556-.807v-1.423l2.966.935-.41,1.295m-2.162,6.055a.318.318,0,0,1-.1-.016l-.294-.091v-6.043l2.353.745-1.634,5.17a.344.344,0,0,1-.326.235m-11.6-14.337v0a1.192,1.192,0,0,1,.372.061l14.217,4.491a1.1,1.1,0,0,1,.395.191.905.905,0,0,1,.238.282,1.035,1.035,0,0,1,.1.258,1.255,1.255,0,0,1,.032.252,1.237,1.237,0,0,1-.049.389l-2.655,8.4a1.085,1.085,0,0,1-1.042.766,1.652,1.652,0,0,1-.339-.066l-.191-.05a1.1,1.1,0,0,1-.354.312,1.079,1.079,0,0,1-.25.1,1.1,1.1,0,0,1-.277.035H411.631a1.094,1.094,0,0,1-1.1-1.1V190.9a1.08,1.08,0,0,1,.086-.424,1.1,1.1,0,0,1,1.009-.671H414.2l1.153-3.647v-.005a1.257,1.257,0,0,1,.474-.62A.961.961,0,0,1,416.35,185.385Zm14.51,5.675a.318.318,0,0,0-.016-.225.23.23,0,0,0-.152-.1h0l-14.22-4.488h0a.251.251,0,0,0-.078-.012.268.268,0,0,0-.155.05.252.252,0,0,0-.1.13h0l-.179.571,8.948,2.827h1.638a1.082,1.082,0,0,1,.7.258,1.1,1.1,0,0,1,.361.595l3.071.968Zm-8.718-1.255-6.431-2.029-.363,1.142,2.806.887Zm-6.748,0-.295-.093-.029.093Zm11.414,9.827V190.9a.263.263,0,0,0-.261-.261H411.631a.263.263,0,0,0-.262.261v8.814a.263.263,0,0,0,.262.261h14.91a.263.263,0,0,0,.262-.261v-.078Zm3.62-7.213-2.79-.88v1.26l2.428.766Zm-.612,1.944-2.178-.689v5.879l.239.074h0a.239.239,0,0,0,.076.012.266.266,0,0,0,.251-.181h0Z" transform="translate(-410.536 -185.385)" fill="#4e2a73"/>
      <rect id="Rectangle_2166" data-name="Rectangle 2166" width="3.262" height="0.66" rx="0.33" transform="translate(2.117 6.524)" fill="#4e2a73"/>
      <path id="Path_1495" data-name="Path 1495" d="M463.45,351.435v.039h2.641a.311.311,0,0,1,.311.311v.039a.311.311,0,0,1-.311.311H463.45a.311.311,0,0,1-.311-.311v-.039a.311.311,0,0,1,.311-.311V351.4a.388.388,0,0,0-.388.388v.039a.388.388,0,0,0,.388.388h2.641a.388.388,0,0,0,.388-.388v-.039a.388.388,0,0,0-.388-.388H463.45Z" transform="translate(-461.022 -344.949)" fill="#4e2a73"/>
      <rect id="Rectangle_2167" data-name="Rectangle 2167" width="5.087" height="0.66" rx="0.33" transform="translate(2.117 8.544)" fill="#4e2a73"/>
      <path id="Path_1496" data-name="Path 1496" d="M463.45,403.435v.039h4.466a.311.311,0,0,1,.311.311v.039a.311.311,0,0,1-.311.311H463.45a.311.311,0,0,1-.311-.311v-.039a.311.311,0,0,1,.311-.311V403.4a.388.388,0,0,0-.388.388v.039a.388.388,0,0,0,.388.388h4.466a.388.388,0,0,0,.388-.388v-.039a.388.388,0,0,0-.388-.388H463.45Z" transform="translate(-461.022 -394.93)" fill="#4e2a73"/>
      <rect id="Rectangle_2168" data-name="Rectangle 2168" width="12.194" height="0.66" rx="0.33" transform="translate(2.117 10.602)" fill="#4e2a73"/>
      <path id="Path_1497" data-name="Path 1497" d="M463.45,456.435v.039h11.572a.311.311,0,0,1,.311.311v.039a.311.311,0,0,1-.311.311H463.45a.311.311,0,0,1-.311-.311v-.039a.311.311,0,0,1,.311-.311V456.4a.388.388,0,0,0-.388.388v.039a.388.388,0,0,0,.388.388h11.572a.388.388,0,0,0,.388-.388v-.039a.388.388,0,0,0-.388-.388H463.45Z" transform="translate(-461.022 -445.872)" fill="#4e2a73"/>
      <rect id="Rectangle_2169" data-name="Rectangle 2169" width="2.019" height="0.66" rx="0.33" transform="translate(2.117 12.621)" fill="#4e2a73"/>
      <path id="Path_1498" data-name="Path 1498" d="M463.45,508.435v.039h1.4a.311.311,0,0,1,.311.311v.039a.311.311,0,0,1-.311.311h-1.4a.311.311,0,0,1-.311-.311v-.039a.311.311,0,0,1,.311-.311V508.4a.388.388,0,0,0-.388.388v.039a.388.388,0,0,0,.388.388h1.4a.388.388,0,0,0,.388-.388v-.039a.388.388,0,0,0-.388-.388h-1.4Z" transform="translate(-461.022 -495.853)" fill="#4e2a73"/>
      <rect id="Rectangle_2170" data-name="Rectangle 2170" width="2.019" height="0.66" rx="0.33" transform="translate(5.496 12.621)" fill="#4e2a73"/>
      <path id="Path_1499" data-name="Path 1499" d="M550.45,508.435v.039h1.4a.311.311,0,0,1,.311.311v.039a.311.311,0,0,1-.311.311h-1.4a.311.311,0,0,1-.311-.311v-.039a.311.311,0,0,1,.311-.311V508.4a.388.388,0,0,0-.388.388v.039a.388.388,0,0,0,.388.388h1.4a.388.388,0,0,0,.388-.388v-.039a.388.388,0,0,0-.388-.388h-1.4Z" transform="translate(-544.644 -495.853)" fill="#4e2a73"/>
      <rect id="Rectangle_2171" data-name="Rectangle 2171" width="2.019" height="0.66" rx="0.33" transform="translate(8.797 12.621)" fill="#4e2a73"/>
      <path id="Path_1500" data-name="Path 1500" d="M635.45,508.435v.039h1.4a.311.311,0,0,1,.311.311v.039a.311.311,0,0,1-.311.311h-1.4a.311.311,0,0,1-.311-.311v-.039a.311.311,0,0,1,.311-.311V508.4a.388.388,0,0,0-.388.388v.039a.388.388,0,0,0,.388.388h1.4a.388.388,0,0,0,.388-.388v-.039a.388.388,0,0,0-.388-.388h-1.4Z" transform="translate(-626.343 -495.853)" fill="#4e2a73"/>
    </g>
  </g>
</svg>
