<svg xmlns="http://www.w3.org/2000/svg" width="115.569" height="28" viewBox="0 0 115.569 28">
  <g id="paypal-seeklogo.com" transform="translate(-0.002)">
    <path id="Path_1540" data-name="Path 1540" d="M175.841,386.87h8.3c4.454,0,6.131,2.255,5.872,5.568-.428,5.469-3.735,8.5-8.12,8.5h-2.214c-.6,0-1.006.4-1.169,1.478l-.94,6.275c-.062.407-.276.642-.6.675h-5.212c-.49,0-.664-.375-.535-1.186l3.178-20.115A1.264,1.264,0,0,1,175.841,386.87Z" transform="translate(-165.246 -381.36)" fill="#009ee3" fill-rule="evenodd"/>
    <path id="Path_1541" data-name="Path 1541" d="M320.906,385.13c2.8,0,5.382,1.518,5.028,5.3-.428,4.5-2.837,6.985-6.639,7h-3.321c-.478,0-.709.39-.833,1.189L314.5,402.7c-.1.617-.413.921-.88.921h-3.09c-.493,0-.664-.315-.555-1.019l2.551-16.367c.126-.805.428-1.105.979-1.105h7.4Zm-5.032,8.763h2.516c1.574-.06,2.619-1.15,2.724-3.116a1.9,1.9,0,0,0-2.06-2.077l-2.368.011-.812,5.182Zm18.462,8.476c.283-.257.57-.39.529-.073l-.1.758c-.051.4.1.606.473.606h2.745c.463,0,.687-.186.8-.9l1.692-10.617c.086-.533-.045-.794-.45-.794h-3.02c-.272,0-.4.152-.475.567l-.111.653c-.058.34-.214.4-.36.058-.512-1.212-1.818-1.756-3.641-1.713-4.234.088-7.088,3.3-7.394,7.422a5.1,5.1,0,0,0,5.058,5.69,5.43,5.43,0,0,0,4.262-1.649h0Zm-2.3-1.634a2.759,2.759,0,0,1-2.829-3.236,3.941,3.941,0,0,1,3.79-3.236,2.759,2.759,0,0,1,2.829,3.236,3.939,3.939,0,0,1-3.79,3.236Zm13.813-9.422h-2.784c-.574,0-.807.428-.625.955l3.456,10.121-3.39,4.816c-.285.4-.064.769.336.769h3.129a.957.957,0,0,0,.929-.456l10.63-15.247c.328-.469.173-.962-.364-.962H354.2c-.508,0-.711.2-1,.623l-4.433,6.424-1.981-6.439a.848.848,0,0,0-.938-.6Z" transform="translate(-277.117 -379.992)" fill="#113984" fill-rule="evenodd"/>
    <path id="Path_1542" data-name="Path 1542" d="M543.574,385.114c2.8,0,5.382,1.518,5.028,5.3-.428,4.5-2.837,6.985-6.639,7h-3.319c-.478,0-.709.39-.833,1.189l-.642,4.084c-.1.617-.413.921-.88.921H533.2c-.493,0-.664-.315-.555-1.019l2.555-16.372c.126-.805.428-1.1.979-1.1h7.4Zm-5.032,8.763h2.516c1.574-.06,2.619-1.15,2.724-3.116a1.9,1.9,0,0,0-2.06-2.077l-2.368.011-.812,5.182ZM557,402.353c.283-.257.57-.39.529-.073l-.1.758c-.051.4.1.606.473.606h2.745c.463,0,.687-.186.8-.9l1.692-10.617c.086-.533-.045-.794-.45-.794h-3.015c-.272,0-.4.152-.475.568l-.111.653c-.058.341-.214.4-.36.058-.512-1.212-1.818-1.756-3.64-1.713-4.234.088-7.088,3.3-7.395,7.422a5.1,5.1,0,0,0,5.058,5.69,5.43,5.43,0,0,0,4.261-1.649h0Zm-2.3-1.634a2.759,2.759,0,0,1-2.829-3.236,3.941,3.941,0,0,1,3.79-3.236,2.759,2.759,0,0,1,2.829,3.236,3.941,3.941,0,0,1-3.79,3.236Zm12.662,2.942H564.2a.375.375,0,0,1-.388-.428l2.784-17.637a.546.546,0,0,1,.527-.428h3.169a.375.375,0,0,1,.388.428l-2.784,17.637a.546.546,0,0,1-.527.433Z" transform="translate(-455.112 -379.977)" fill="#009ee3" fill-rule="evenodd"/>
    <path id="Path_1543" data-name="Path 1543" d="M148.886,354.54h8.3c2.338,0,5.114.071,6.968,1.62a5.169,5.169,0,0,1,1.741,4.456c-.51,6-4.3,9.358-9.39,9.358h-4.094c-.7,0-1.159.438-1.356,1.62l-1.144,6.887c-.075.446-.278.709-.642.741h-5.125c-.567,0-.769-.405-.621-1.3l3.683-22.074A1.452,1.452,0,0,1,148.886,354.54Z" transform="translate(-143.48 -354.54)" fill="#113984" fill-rule="evenodd"/>
    <path id="Path_1544" data-name="Path 1544" d="M179.43,397.231l1.45-9.18a1.269,1.269,0,0,1,1.445-1.191h8.3a8.092,8.092,0,0,1,3.354.61c-.833,5.645-4.484,8.78-9.264,8.78h-4.088A1.208,1.208,0,0,0,179.43,397.231Z" transform="translate(-171.73 -380.452)" fill="#172c70" fill-rule="evenodd"/>
  </g>
</svg>
