<svg xmlns="http://www.w3.org/2000/svg" width="30" height="30" viewBox="0 0 30 30">
  <g id="Group_1" data-name="Group 1" transform="translate(-200 -11)">
    <g id="Play" transform="translate(200 11)">
      <circle id="Ellipse_32" data-name="Ellipse 32" cx="15" cy="15" r="15" fill="none"/>
      <g id="Ellipse_6" data-name="Ellipse 6" fill="none" stroke="#fff" stroke-width="2">
        <circle cx="15" cy="15" r="15" stroke="none"/>
        <circle cx="15" cy="15" r="14" fill="none"/>
      </g>
      <g id="Polygon_1" data-name="Polygon 1" transform="translate(21.111 8.98) rotate(90)" fill="none">
        <path d="M5.4.74a.5.5,0,0,1,.864,0l4.963,8.508A.5.5,0,0,1,10.8,10H.871a.5.5,0,0,1-.432-.752Z" stroke="none"/>
        <path d="M 5.833331108093262 3.969276428222656 L 3.482073783874512 8.000004768371582 L 8.184589385986328 8.000004768371582 L 5.833331108093262 3.969276428222656 M 5.833333015441895 0.492314338684082 C 6.00104284286499 0.492314338684082 6.168753147125244 0.5750045776367188 6.265223026275635 0.7403841018676758 L 11.2280330657959 9.248064041137695 C 11.42248344421387 9.581394195556641 11.18204307556152 10.00000476837158 10.79615306854248 10.00000476837158 L 0.8705234527587891 10.00000476837158 C 0.4846229553222656 10.00000476837158 0.2441825866699219 9.581394195556641 0.4386329650878906 9.248064041137695 L 5.401443004608154 0.7403841018676758 C 5.497912883758545 0.5750045776367188 5.665623188018799 0.492314338684082 5.833333015441895 0.492314338684082 Z" stroke="none" fill="#fff"/>
      </g>
    </g>
  </g>
</svg>
