<svg id="result" xmlns="http://www.w3.org/2000/svg" width="24" height="24" viewBox="0 0 24 24">
  <rect id="Rectangle_2214" data-name="Rectangle 2214" width="24" height="24" fill="none"/>
  <g id="interface" transform="translate(-671.613 -372.442)">
    <g id="Group_7707" data-name="Group 7707" transform="translate(674.958 374.714)">
      <g id="Group_7700" data-name="Group 7700" transform="translate(0.39 0.39)">
        <g id="Group_7694" data-name="Group 7694" transform="translate(2.811)">
          <path id="Path_1576" data-name="Path 1576" d="M679.178,376.951h11.251v-.625a1.25,1.25,0,0,0-1.25-1.25H677.926a1.25,1.25,0,0,1,1.25,1.25Z" transform="translate(-677.926 -375.076)" fill="#e0f7fa" stroke="#4e2a73" stroke-width="0.6" fill-rule="evenodd"/>
        </g>
        <g id="Group_7695" data-name="Group 7695" transform="translate(1.563)">
          <path id="Path_1577" data-name="Path 1577" d="M689.27,378.9v-1.953h-10v-.625a1.25,1.25,0,0,0-2.5,0h0v6.25h1.563v-2.422a1.25,1.25,0,0,1,1.25-1.25Z" transform="translate(-676.769 -375.076)" fill="#e0f7fa" stroke="#4e2a73" stroke-width="0.6" fill-rule="evenodd"/>
        </g>
        <g id="Group_7696" data-name="Group 7696" transform="translate(4.376 3.827)">
          <path id="Path_1578" data-name="Path 1578" d="M689.064,378.624h-9.687a1.25,1.25,0,0,1,1.25,1.25v.625h11.251v-.625a1.25,1.25,0,0,0-1.25-1.25h-1.564Z" transform="translate(-679.377 -378.624)" fill="#e0f7fa" stroke="#4e2a73" stroke-width="0.6" fill-rule="evenodd"/>
        </g>
        <g id="Group_7697" data-name="Group 7697" transform="translate(3.125 3.828)">
          <path id="Path_1579" data-name="Path 1579" d="M690.718,380.5h-10v-.625a1.25,1.25,0,0,0-2.5,0V382.3h1.953c.216,0,.341.181.39.39l.375,1.563h9.782Z" transform="translate(-678.217 -378.625)" fill="#e0f7fa" stroke="#4e2a73" stroke-width="0.6" fill-rule="evenodd"/>
        </g>
        <g id="Group_7698" data-name="Group 7698" transform="translate(0 7.5)">
          <path id="Path_1580" data-name="Path 1580" d="M681.164,383.983l-.375-1.563c-.051-.209-.176-.39-.39-.39H675.71a.392.392,0,0,0-.39.39v10.938a.391.391,0,0,0,.39.39h16.407a.39.39,0,0,0,.39-.39v-8.984a.392.392,0,0,0-.39-.39Z" transform="translate(-675.32 -382.03)" fill="#4dd0e1" stroke="#4e2a73" stroke-width="0.6" fill-rule="evenodd"/>
        </g>
      </g>
      <g id="Group_7706" data-name="Group 7706">
        <g id="Group_7701" data-name="Group 7701" transform="translate(0 7.5)">
          <path id="Path_1582" data-name="Path 1582" d="M692.146,394.169H675.739a.782.782,0,0,1-.781-.781V382.449a.784.784,0,0,1,.781-.781h4.688a.808.808,0,0,1,.77.69l.3,1.263h10.646a.782.782,0,0,1,.781.781v8.984a.781.781,0,0,1-.781.781Zm-16.407-11.72v10.938h16.407V384.4H681.192a.391.391,0,0,1-.38-.3l-.375-1.563a.317.317,0,0,0-.035-.092Z" transform="translate(-674.958 -381.668)" fill="#4dd0e1" stroke="#4e2a73" stroke-width="0.6"/>
        </g>
        <path id="Path_1576-2" data-name="Path 1576" d="M689.3,374.714H678.048a1.643,1.643,0,0,0-1.641,1.638v5.862h0a.39.39,0,0,0,.781,0v-6.009a.863.863,0,1,1,1.719.149v.626a.39.39,0,0,0,.39.39h9.61v1.177a.39.39,0,0,0,.39.39v0a.389.389,0,0,0,.387-.392v-1.172h.864a.39.39,0,0,0,.389-.39v-.625A1.643,1.643,0,0,0,689.3,374.714Zm.86,1.881h-10.47v-.241a1.623,1.623,0,0,0-.244-.862h9.85a.862.862,0,0,1,.863.862Z" transform="translate(-674.844 -374.714)" fill="#4dd0e1" stroke="#4e2a73" stroke-width="0.6"/>
        <g id="Group_7703" data-name="Group 7703" transform="translate(3.125 3.827)">
          <path id="Path_1584" data-name="Path 1584" d="M690.746,384.279a.39.39,0,0,1-.39-.39V380.92h-9.61a.39.39,0,0,1-.39-.39V379.9a.863.863,0,1,0-1.719,0v2.031a.39.39,0,1,1-.781,0h0V379.9a1.643,1.643,0,0,1,1.641-1.642h11.251a1.643,1.643,0,0,1,1.641,1.641v.625a.39.39,0,0,1-.39.39h-.863v2.969A.389.389,0,0,1,690.746,384.279Zm-9.61-4.141H691.6V379.9a.863.863,0,0,0-.863-.863h-9.853a1.629,1.629,0,0,1,.244.863Z" transform="translate(-677.855 -378.262)" fill="#4dd0e1" stroke="#4e2a73" stroke-width="0.6"/>
        </g>
      </g>
    </g>
  </g>
  <rect id="Rectangle_2215" data-name="Rectangle 2215" width="5.087" height="0.66" rx="0.33" transform="translate(10.479 9.855)" fill="#0083db"/>
</svg>
