<svg xmlns="http://www.w3.org/2000/svg" width="24" height="24" viewBox="0 0 24 24">
  <g id="Group_7588" data-name="Group 7588" transform="translate(-0.172 0.424)">
    <rect id="Rectangle_2164" data-name="Rectangle 2164" width="24" height="24" transform="translate(0.172 -0.424)" fill="none"/>
    <g id="gear" transform="translate(2.151 1.674)">
      <path id="Path_1503" data-name="Path 1503" d="M19.415,7.677l-1.528-.332a8.317,8.317,0,0,0-.492-1.186l.846-1.316a.594.594,0,0,0-.08-.741L15.78,1.721a.594.594,0,0,0-.741-.08l-1.316.846A8.317,8.317,0,0,0,12.537,2L12.205.468A.594.594,0,0,0,11.625,0H8.258a.594.594,0,0,0-.581.468L7.345,2a8.317,8.317,0,0,0-1.186.492L4.843,1.642a.594.594,0,0,0-.741.08L1.721,4.1a.594.594,0,0,0-.08.741l.846,1.316A8.317,8.317,0,0,0,2,7.345L.468,7.677A.594.594,0,0,0,0,8.258v3.367a.594.594,0,0,0,.468.581L2,12.537a8.317,8.317,0,0,0,.492,1.186l-.846,1.316a.594.594,0,0,0,.08.741L4.1,18.161a.594.594,0,0,0,.741.08l1.316-.846a8.317,8.317,0,0,0,1.186.492l.332,1.528a.594.594,0,0,0,.581.468h3.367a.594.594,0,0,0,.581-.468l.332-1.528a8.317,8.317,0,0,0,1.186-.492l1.316.846a.594.594,0,0,0,.741-.08l2.381-2.381a.594.594,0,0,0,.08-.741l-.846-1.316a8.317,8.317,0,0,0,.492-1.186l1.528-.332a.594.594,0,0,0,.468-.581V8.258A.594.594,0,0,0,19.415,7.677Z" fill="#4dd0e1"/>
      <ellipse id="Ellipse_18" data-name="Ellipse 18" cx="4.651" cy="4.558" rx="4.651" ry="4.558" transform="translate(5.277 5.344)" fill="#e0f7fa"/>
      <path id="Path_1484" data-name="Path 1484" d="M138.362,133.609a4.753,4.753,0,1,0,4.753,4.753A4.758,4.758,0,0,0,138.362,133.609Zm0,8.317a3.565,3.565,0,1,1,3.565-3.565A3.569,3.569,0,0,1,138.362,141.927Zm0,0" transform="translate(-128.421 -128.421)" fill="#4e2a73"/>
      <path id="Path_1485" data-name="Path 1485" d="M19.415,7.677l-1.528-.332a8.317,8.317,0,0,0-.492-1.186l.846-1.316a.594.594,0,0,0-.08-.741L15.78,1.721a.594.594,0,0,0-.741-.08l-1.316.846A8.317,8.317,0,0,0,12.537,2L12.205.468A.594.594,0,0,0,11.625,0H8.258a.594.594,0,0,0-.581.468L7.345,2a8.317,8.317,0,0,0-1.186.492L4.843,1.642a.594.594,0,0,0-.741.08L1.721,4.1a.594.594,0,0,0-.08.741l.846,1.316A8.317,8.317,0,0,0,2,7.345L.468,7.677A.594.594,0,0,0,0,8.258v3.367a.594.594,0,0,0,.468.581L2,12.537a8.317,8.317,0,0,0,.492,1.186l-.846,1.316a.594.594,0,0,0,.08.741L4.1,18.161a.594.594,0,0,0,.741.08l1.316-.846a8.317,8.317,0,0,0,1.186.492l.332,1.528a.594.594,0,0,0,.581.468h3.367a.594.594,0,0,0,.581-.468l.332-1.528a8.317,8.317,0,0,0,1.186-.492l1.316.846a.594.594,0,0,0,.741-.08l2.381-2.381a.594.594,0,0,0,.08-.741l-.846-1.316a8.317,8.317,0,0,0,.492-1.186l1.528-.332a.594.594,0,0,0,.468-.581V8.258A.594.594,0,0,0,19.415,7.677Zm-.72,3.468-1.4.3a.594.594,0,0,0-.446.421,7.128,7.128,0,0,1-.658,1.587.594.594,0,0,0,.018.613l.776,1.207-1.7,1.7-1.207-.776a.594.594,0,0,0-.613-.018,7.133,7.133,0,0,1-1.588.658.594.594,0,0,0-.421.446l-.3,1.4H8.737l-.3-1.4a.594.594,0,0,0-.421-.446,7.128,7.128,0,0,1-1.587-.658.594.594,0,0,0-.613.018L4.6,16.982l-1.7-1.7.776-1.207a.594.594,0,0,0,.018-.613,7.136,7.136,0,0,1-.658-1.587.594.594,0,0,0-.446-.421l-1.4-.3V8.737l1.4-.3a.594.594,0,0,0,.446-.421,7.128,7.128,0,0,1,.658-1.587.594.594,0,0,0-.018-.613L2.9,4.6,4.6,2.9l1.207.776a.594.594,0,0,0,.613.018,7.132,7.132,0,0,1,1.588-.658.594.594,0,0,0,.421-.446l.3-1.4h2.409l.3,1.4a.594.594,0,0,0,.421.446,7.128,7.128,0,0,1,1.587.658.594.594,0,0,0,.613-.018L15.279,2.9l1.7,1.7-.776,1.207a.594.594,0,0,0-.018.613,7.129,7.129,0,0,1,.658,1.587.594.594,0,0,0,.446.421l1.4.3Zm0,0" fill="#4e2a73"/>
      <path id="Path_1502" data-name="Path 1502" d="M19.415,7.677l-1.528-.332a8.317,8.317,0,0,0-.492-1.186l.846-1.316a.594.594,0,0,0-.08-.741L15.78,1.721a.594.594,0,0,0-.741-.08l-1.316.846A8.317,8.317,0,0,0,12.537,2L12.205.468A.594.594,0,0,0,11.625,0H8.258a.594.594,0,0,0-.581.468L7.345,2a8.317,8.317,0,0,0-1.186.492L4.843,1.642a.594.594,0,0,0-.741.08L1.721,4.1a.594.594,0,0,0-.08.741l.846,1.316A8.317,8.317,0,0,0,2,7.345L.468,7.677A.594.594,0,0,0,0,8.258v3.367a.594.594,0,0,0,.468.581L2,12.537a8.317,8.317,0,0,0,.492,1.186l-.846,1.316a.594.594,0,0,0,.08.741L4.1,18.161a.594.594,0,0,0,.741.08l1.316-.846a8.317,8.317,0,0,0,1.186.492l.332,1.528a.594.594,0,0,0,.581.468h3.367a.594.594,0,0,0,.581-.468l.332-1.528a8.317,8.317,0,0,0,1.186-.492l1.316.846a.594.594,0,0,0,.741-.08l2.381-2.381a.594.594,0,0,0,.08-.741l-.846-1.316a8.317,8.317,0,0,0,.492-1.186l1.528-.332a.594.594,0,0,0,.468-.581V8.258A.594.594,0,0,0,19.415,7.677Zm-.72,3.468-1.4.3a.594.594,0,0,0-.446.421,7.128,7.128,0,0,1-.658,1.587.594.594,0,0,0,.018.613l.776,1.207-1.7,1.7-1.207-.776a.594.594,0,0,0-.613-.018,7.133,7.133,0,0,1-1.588.658.594.594,0,0,0-.421.446l-.3,1.4H8.737l-.3-1.4a.594.594,0,0,0-.421-.446,7.128,7.128,0,0,1-1.587-.658.594.594,0,0,0-.613.018L4.6,16.982l-1.7-1.7.776-1.207a.594.594,0,0,0,.018-.613,7.136,7.136,0,0,1-.658-1.587.594.594,0,0,0-.446-.421l-1.4-.3V8.737l1.4-.3a.594.594,0,0,0,.446-.421,7.128,7.128,0,0,1,.658-1.587.594.594,0,0,0-.018-.613L2.9,4.6,4.6,2.9l1.207.776a.594.594,0,0,0,.613.018,7.132,7.132,0,0,1,1.588-.658.594.594,0,0,0,.421-.446l.3-1.4h2.409l.3,1.4a.594.594,0,0,0,.421.446,7.128,7.128,0,0,1,1.587.658.594.594,0,0,0,.613-.018L15.279,2.9l1.7,1.7-.776,1.207a.594.594,0,0,0-.018.613,7.129,7.129,0,0,1,.658,1.587.594.594,0,0,0,.446.421l1.4.3Zm0,0" fill="#4e2a73"/>
    </g>
  </g>
</svg>
