<svg id="skype" xmlns="http://www.w3.org/2000/svg" width="47.639" height="47.524" viewBox="0 0 47.639 47.524">
  <circle id="Ellipse_36" data-name="Ellipse 36" cx="19.444" cy="19.444" r="19.444" transform="translate(4.861 3.889)" fill="#fff"/>
  <g id="skype-seeklogo.com">
    <path id="Path_7446" data-name="Path 7446" d="M45.953,27.729c-.015.084-.026.168-.041.252l-.081-.48c.045.075.081.152.123.228a22.608,22.608,0,0,0,.375-4.078,22.477,22.477,0,0,0-22.5-22.494,22.646,22.646,0,0,0-4.26.4l-.011,0c.078.041.158.078.235.121l-.473-.074.238-.048A13.309,13.309,0,0,0,1.676,19.775c.014-.081.024-.164.04-.245L1.8,20c-.042-.074-.079-.151-.121-.226a22.656,22.656,0,0,0-.339,3.877,22.486,22.486,0,0,0,22.5,22.5,22.618,22.618,0,0,0,3.94-.35c-.075-.042-.152-.081-.229-.125l.481.084c-.083.016-.167.026-.251.041a13.311,13.311,0,0,0,18.18-18.069Zm-22.03,9.7c-7.992,0-11.567-3.929-11.567-6.874a2.513,2.513,0,0,1,2.652-2.569c3.42,0,2.534,4.911,8.915,4.911,3.267,0,5.071-1.774,5.071-3.589,0-1.092-.539-2.3-2.69-2.832L19.2,24.7c-5.725-1.436-6.764-4.53-6.764-7.439,0-6.04,5.687-8.308,11.028-8.308,4.92,0,10.719,2.719,10.719,6.343a2.6,2.6,0,0,1-2.88,2.456c-2.919,0-2.382-4.04-8.261-4.04-2.917,0-4.533,1.321-4.533,3.212s2.3,2.49,4.3,2.945l5.261,1.168c5.763,1.284,7.224,4.649,7.224,7.818C35.294,33.763,31.526,37.428,23.922,37.428Zm3.621,8.244c.077.045.154.083.229.125.084-.015.168-.025.251-.041ZM45.911,27.981c.016-.084.026-.168.041-.252-.041-.075-.078-.153-.123-.228Zm-44.2-8.452c-.016.081-.026.164-.04.245.042.075.079.152.121.226ZM19.8,1.682c-.077-.043-.156-.08-.235-.121l-.238.048Z" fill="#00aff0"/>
  </g>
</svg>
