<svg id="Group_7577" data-name="Group 7577" xmlns="http://www.w3.org/2000/svg" width="40" height="28" viewBox="0 0 40 28">
  <rect id="Rectangle_2179" data-name="Rectangle 2179" width="40" height="28" rx="6" fill="#e0f7fa"/>
  <g id="visa" transform="translate(5.558 9.284)">
    <g id="Group_7576" data-name="Group 7576" transform="translate(2.714 0)">
      <g id="Group_7575" data-name="Group 7575">
        <path id="Path_1530" data-name="Path 1530" d="M36.422,100.23,34.964,109.3h2.33l1.457-9.073Zm7.029,3.7c-.814-.4-1.314-.674-1.314-1.085.01-.374.422-.757,1.343-.757a4.055,4.055,0,0,1,1.736.336l.211.094.317-1.9a5.882,5.882,0,0,0-2.092-.374c-2.3,0-3.922,1.2-3.932,2.908-.019,1.263,1.16,1.964,2.043,2.384.9.431,1.208.711,1.208,1.094-.01.588-.729.86-1.4.86a4.739,4.739,0,0,1-2.187-.468l-.307-.14-.326,1.973a7.277,7.277,0,0,0,2.6.468c2.446,0,4.037-1.178,4.057-3C45.417,105.318,44.795,104.552,43.451,103.926Zm8.267-3.668h-1.8a1.155,1.155,0,0,0-1.218.73L45.236,109.3h2.446l.674-1.8h2.736l.349,1.807H53.6Zm-2.685,5.428c.047,0,.939-2.939.939-2.939l.71,2.939ZM33.017,100.23l-2.283,6.164-.249-1.216a6.773,6.773,0,0,0-3.223-3.684l2.091,7.8h2.466l3.664-9.063H33.017Z" transform="translate(-27.262 -100.23)" fill="#012e52"/>
      </g>
    </g>
    <path id="Path_1531" data-name="Path 1531" d="M5.169,101.416a1.523,1.523,0,0,0-1.516-1.168H.037L0,100.416a8.876,8.876,0,0,1,5.956,4.848Z" transform="translate(0 -100.246)" fill="#efc75e"/>
  </g>
</svg>
