<svg id="Warning" xmlns="http://www.w3.org/2000/svg" width="50" height="50" viewBox="0 0 50 50">
  <circle id="Ellipse_35" data-name="Ellipse 35" cx="25" cy="25" r="25" fill="#e0f7fa"/>
  <path id="bg" d="M0,0H40V40H0Z" transform="translate(5 1.667)" fill="rgba(216,216,216,0)"/>
  <path id="Shape" d="M25.616,26.875H4.391c-1.875,0-3.235-.634-3.934-1.834a4.134,4.134,0,0,1,.335-4.289L11.4,2.454A4.27,4.27,0,0,1,15,0a4.274,4.274,0,0,1,3.6,2.45L29.318,20.991l-.1-.239a4.139,4.139,0,0,1,.336,4.289A4.28,4.28,0,0,1,25.616,26.875Zm-10.6-5.763-.011,0a1.181,1.181,0,1,0,.011,0ZM15,5.382a1.374,1.374,0,0,0-.178.012,1.353,1.353,0,0,0-1.165,1.518L14.1,17.971a.9.9,0,0,0,1.8,0l.441-11.061a1.706,1.706,0,0,0-.006-.35A1.358,1.358,0,0,0,15,5.382Z" transform="translate(9.996 8.333)" fill="#4e2a73"/>
</svg>
