<svg xmlns="http://www.w3.org/2000/svg" width="91.909" height="61.063" viewBox="0 0 91.909 61.063">
  <g id="Group_7483" data-name="Group 7483" transform="translate(-255.499 -154.223)">
    <g id="Group_7483-2" data-name="Group 7483" transform="translate(257.956 185.198)" style="isolation: isolate">
      <path id="Path_1464" data-name="Path 1464" d="M323.315,850c3.275,1.643,5.595.452,7.412-1.707a14.6,14.6,0,0,0,2.471-4.19c1.074-2.864-.431-4.836-3.5-4.763a11.515,11.515,0,0,0-6.021,1.75,5.1,5.1,0,0,0-2.215,6.569,1.332,1.332,0,0,1-.121,1,5.284,5.284,0,0,1-4.327,2.574,6.523,6.523,0,0,0-5.539,3.379c-.187-.277-.34-.468-.455-.679a14.9,14.9,0,1,1,2.407,3.372.9.9,0,0,1-.106-1.406,4.687,4.687,0,0,1,3.7-2.008,6.818,6.818,0,0,0,6.144-3.674C323.2,850.147,323.254,850.084,323.315,850Z" transform="translate(-309.238 -831.836)" fill="#fff" fill-rule="evenodd"/>
    </g>
    <g id="Group_7484" data-name="Group 7484" transform="translate(289.564 194.896)" style="isolation: isolate">
      <path id="Path_1465" data-name="Path 1465" d="M1000.692,1057.2h9.188v-2.164h-7.334v-8.093h7.334v-2.164h-9.187Z" transform="translate(-1000.692 -1044.743)" fill="#fff"/>
      <rect id="Rectangle_2131" data-name="Rectangle 2131" width="6.074" height="2.164" transform="translate(2.631 5.074)" fill="#fff"/>
      <path id="Path_1466" data-name="Path 1466" d="M1261.5,1044.779h-6V1057.2h6a4.8,4.8,0,0,0,3.846-1.8,6.831,6.831,0,0,0,1.51-4.547,6.338,6.338,0,0,0-1.5-4.4A4.947,4.947,0,0,0,1261.5,1044.779Zm2.515,9.148a3.221,3.221,0,0,1-2.515,1.11h-4.158v-8.093h4.158a3.176,3.176,0,0,1,2.515,1.146,4.348,4.348,0,0,1,.989,2.947A4.18,4.18,0,0,1,1264.017,1053.927Z" transform="translate(-1243.859 -1044.742)" fill="#fff"/>
      <path id="Path_1467" data-name="Path 1467" d="M1531,1044.379a1.279,1.279,0,0,0-.841-.4,1.341,1.341,0,0,0-.841.418,2.828,2.828,0,0,0-.608.8l-5.777,11.221h2.383l4.8-9.2,1.853,3.583h-2.818l-1.121,2.146h5.046l1.791,3.474,2.383.018L1531.6,1045.2A2.787,2.787,0,0,0,1531,1044.379Z" transform="translate(-1499.057 -1043.979)" fill="#fff"/>
      <path id="Path_1468" data-name="Path 1468" d="M1763.367,1044.779l-3.753,6.11-4-6.11h-2.383l5.419,8.275v4.146h1.837v-4.11l5.28-8.311Z" transform="translate(-1718.829 -1044.743)" fill="#fff"/>
      <path id="Path_1469" data-name="Path 1469" d="M1956.078,1045.2a2.778,2.778,0,0,0-.608-.818,1.277,1.277,0,0,0-.841-.4,1.343,1.343,0,0,0-.841.418,2.813,2.813,0,0,0-.607.8l-5.778,11.221h2.382l4.8-9.2,1.853,3.583h-2.819l-1.121,2.146h5.045l1.791,3.474,2.382.018Z" transform="translate(-1904.126 -1043.979)" fill="#fff"/>
    </g>
    <g id="Group_7485" data-name="Group 7485" transform="translate(277.021 173.572)">
      <path id="Path_1470" data-name="Path 1470" d="M1319.123,952.937a1.681,1.681,0,0,0-1.205-.492,1.654,1.654,0,0,0-.646.125,1.769,1.769,0,0,0-.531.342,1.745,1.745,0,0,0-.376.516,1.948,1.948,0,0,0-.184.637,1.75,1.75,0,0,0,.087.757,1.839,1.839,0,0,0,.357.613,1.683,1.683,0,0,0,1.254.559,1.6,1.6,0,0,0,.694-.135,1.88,1.88,0,0,0,.574-.391,1.745,1.745,0,0,0,.506-1.287,1.956,1.956,0,0,0-.159-.695A1.779,1.779,0,0,0,1319.123,952.937Z" transform="translate(-1289.208 -935.305)" fill="#fff" stroke="#fff" stroke-miterlimit="10" stroke-width="2"/>
      <path id="Path_1471" data-name="Path 1471" d="M758.181,673.923v8.17H726.308a2.716,2.716,0,0,1,.1.771,2.5,2.5,0,0,1,.645,1.847,2.391,2.391,0,0,1,.865.373H761.2v-11.16Z" transform="translate(-726.308 -669.515)" fill="#fff" stroke="#fff" stroke-miterlimit="10" stroke-width="2"/>
      <path id="Path_1472" data-name="Path 1472" d="M1409.045,953.353a1.687,1.687,0,0,0-1.205-.491,1.63,1.63,0,0,0-.926.251,1.671,1.671,0,0,0-.574.632,1.9,1.9,0,0,0-.213.835,1.856,1.856,0,0,0,.164.843,1.714,1.714,0,0,0,.554.671,1.767,1.767,0,0,0,.955.318,1.592,1.592,0,0,0,.695-.135,1.881,1.881,0,0,0,.574-.391,1.728,1.728,0,0,0,.381-.578,1.747,1.747,0,0,0,.126-.709,1.973,1.973,0,0,0-.159-.694A1.8,1.8,0,0,0,1409.045,953.353Z" transform="translate(-1375.05 -935.703)" fill="#fff" stroke="#fff" stroke-miterlimit="10" stroke-width="2"/>
      <path id="Path_1473" data-name="Path 1473" d="M1550,577.492V593.05h-3V577.492Z" transform="translate(-1509.484 -577.492)" fill="#fff" stroke="#fff" stroke-miterlimit="10" stroke-width="2"/>
      <path id="Path_1474" data-name="Path 1474" d="M1669.8,679.445v-3h9.645a7.548,7.548,0,0,0-.184-1.172,6.22,6.22,0,0,0-.366-1.084,10.049,10.049,0,0,0-.555-1,5.032,5.032,0,0,0-.738-.911,5.31,5.31,0,0,0-.68-.574,3.082,3.082,0,0,0-.786-.4l-1.775-.357-1.4.241c-.244.09-.474.185-.689.285a4.641,4.641,0,0,0-.661.381l-.357.309v-3.482l1.534-.483,1.505-.183,1.533.183,1.466.376q.338.136.656.285a3.624,3.624,0,0,1,.626.381l1.245.906a10.92,10.92,0,0,1,1.037,1.418,12.1,12.1,0,0,1,.786,1.515,8.864,8.864,0,0,1,.579,1.64,9.374,9.374,0,0,1,.261,1.726h3.911a.573.573,0,0,0-.406.135.465.465,0,0,0-.144.356v2.016a.394.394,0,0,0,.144.333.951.951,0,0,0,.406.159Z" transform="translate(-1626.668 -663.877)" fill="#fff" stroke="#fff" stroke-miterlimit="10" stroke-width="2"/>
      <path id="Path_1475" data-name="Path 1475" d="M1959.547,680.478v-8.237h3.087v11.227h-10.193c-.231,0-2.973-.044-3.1-.13a.431.431,0,0,1-.193-.381v-1.949a.45.45,0,0,1,.193-.4c.128-.087,2.87-.13,3.1-.13Zm1.35,4.7a1.709,1.709,0,0,1,.666.13,1.689,1.689,0,0,1,.54.361,1.788,1.788,0,0,1,.371.55,1.965,1.965,0,0,1,.159.695,1.759,1.759,0,0,1-.125.709,1.74,1.74,0,0,1-.381.579,1.892,1.892,0,0,1-.574.391,1.6,1.6,0,0,1-.695.135,1.688,1.688,0,0,1-1.254-.559,1.84,1.84,0,0,1-.356-.613,1.731,1.731,0,0,1-.087-.756,1.954,1.954,0,0,1,.183-.636,1.739,1.739,0,0,1,.376-.516,1.783,1.783,0,0,1,.53-.343A1.663,1.663,0,0,1,1960.9,685.175Z" transform="translate(-1893.248 -667.91)" fill="#fff" stroke="#fff" stroke-miterlimit="10" stroke-width="2"/>
    </g>
    <path id="Subtraction_1" data-name="Subtraction 1" d="M2766.874,18903.518a14.883,14.883,0,0,1-13.876-9.512l.039-.115a17.807,17.807,0,0,0,1.332-6.85,4.642,4.642,0,0,0-1.565-3.256,14.88,14.88,0,1,1,14.071,19.732Zm2.406-22.1a7.149,7.149,0,1,0,7.149,7.148A7.157,7.157,0,0,0,2769.279,18881.414Zm.958-5.209a1.645,1.645,0,0,0-.925.252,1.683,1.683,0,0,0-.574.631,1.926,1.926,0,0,0-.213.834,1.806,1.806,0,0,0,.166.846,1.728,1.728,0,0,0,.55.668,1.771,1.771,0,0,0,.958.318h.062a1.583,1.583,0,0,0,.631-.133,2.078,2.078,0,0,0,.574-.389,1.724,1.724,0,0,0,.379-.584,1.756,1.756,0,0,0,.128-.707,1.945,1.945,0,0,0-.161-.693,1.617,1.617,0,0,0-.37-.549,1.564,1.564,0,0,0-.541-.361A1.7,1.7,0,0,0,2770.238,18876.205Zm-4.08-.02a1.583,1.583,0,0,0-.645.129,1.771,1.771,0,0,0-.531.342,1.708,1.708,0,0,0-.375.516,1.856,1.856,0,0,0-.185.637,1.823,1.823,0,0,0,.085.76,1.959,1.959,0,0,0,.356.611,1.758,1.758,0,0,0,.56.408,1.673,1.673,0,0,0,.7.152h.038a1.543,1.543,0,0,0,.655-.139,1.747,1.747,0,0,0,.574-.389,1.716,1.716,0,0,0,.38-.578,1.78,1.78,0,0,0,.128-.713,1.962,1.962,0,0,0-.161-.691,1.7,1.7,0,0,0-1.575-1.045Z" transform="translate(-2494.061 -18712.236)" fill="#fff" stroke="rgba(0,0,0,0)" stroke-miterlimit="10" stroke-width="1"/>
    <g id="Group_7487" data-name="Group 7487" transform="translate(255.499 154.223)" style="isolation: isolate">
      <path id="Path_1479" data-name="Path 1479" d="M264.861,157.807l2.525-3.584H255.5l2.563,3.584v44.069s-.6,3.287,3.2,3.287c0,0,3.5.317,3.463-2.9Z" transform="translate(-255.499 -154.223)" fill="#fff"/>
      <rect id="Rectangle_2132" data-name="Rectangle 2132" width="3.151" height="0.25" transform="translate(6.342 9.962)" fill="#fff"/>
      <rect id="Rectangle_2133" data-name="Rectangle 2133" width="3.151" height="0.248" transform="translate(6.342 12.518)" fill="#fff"/>
      <rect id="Rectangle_2134" data-name="Rectangle 2134" width="3.151" height="0.249" transform="translate(6.342 15.26)" fill="#fff"/>
      <rect id="Rectangle_2135" data-name="Rectangle 2135" width="3.151" height="0.25" transform="translate(6.342 17.816)" fill="#fff"/>
      <rect id="Rectangle_2136" data-name="Rectangle 2136" width="3.151" height="0.248" transform="translate(6.342 20.418)" fill="#fff"/>
      <rect id="Rectangle_2137" data-name="Rectangle 2137" width="3.151" height="0.25" transform="translate(6.342 22.972)" fill="#fff"/>
      <rect id="Rectangle_2138" data-name="Rectangle 2138" width="3.151" height="0.249" transform="translate(6.342 25.715)" fill="#fff"/>
      <rect id="Rectangle_2139" data-name="Rectangle 2139" width="3.151" height="0.25" transform="translate(6.342 28.27)" fill="#fff"/>
      <rect id="Rectangle_2140" data-name="Rectangle 2140" width="3.151" height="0.25" transform="translate(6.342 31.316)" fill="#fff"/>
      <rect id="Rectangle_2141" data-name="Rectangle 2141" width="3.151" height="0.25" transform="translate(6.342 33.872)" fill="#fff"/>
      <rect id="Rectangle_2142" data-name="Rectangle 2142" width="3.151" height="0.25" transform="translate(6.342 36.614)" fill="#fff"/>
      <rect id="Rectangle_2143" data-name="Rectangle 2143" width="3.151" height="0.25" transform="translate(6.342 39.17)" fill="#fff"/>
      <rect id="Rectangle_2144" data-name="Rectangle 2144" width="3.151" height="0.249" transform="translate(6.342 41.772)" fill="#fff"/>
      <rect id="Rectangle_2145" data-name="Rectangle 2145" width="3.151" height="0.25" transform="translate(6.342 44.327)" fill="#fff"/>
    </g>
  </g>
</svg>
