<svg xmlns="http://www.w3.org/2000/svg" width="50.179" height="50.166" viewBox="0 0 50.179 50.166">
  <g id="zoom" transform="translate(0 0)">
    <path id="Path_7447" data-name="Path 7447" d="M417.242,115.2a25.083,25.083,0,1,1,25.113-25.03A25.1,25.1,0,0,1,417.242,115.2Zm-6.6-33.79h-8.573c-.892,0-1.156.259-1.156,1.142q0,5.674,0,11.348a4.781,4.781,0,0,0,4.925,4.924q8.412,0,16.824,0c.867,0,1.13-.261,1.13-1.122q0-5.694,0-11.388a4.775,4.775,0,0,0-4.9-4.9Q414.771,81.408,410.646,81.411Zm22.416,8.707q0-3.861,0-7.721a2.659,2.659,0,0,0-.042-.6.441.441,0,0,0-.673-.328,1.833,1.833,0,0,0-.34.211q-3.41,2.485-6.822,4.968a.607.607,0,0,0-.285.561q.014,2.915,0,5.831a.609.609,0,0,0,.283.564q3.353,2.428,6.692,4.874c.268.2.551.471.9.3s.285-.572.285-.9Q433.065,94,433.062,90.118Z" transform="translate(-392.176 -65.035)" fill="#2c8bfe"/>
    <path id="Path_7448" data-name="Path 7448" d="M510.335,268.207q4.126,0,8.251,0a4.776,4.776,0,0,1,4.9,4.9q0,5.694,0,11.388c0,.861-.263,1.122-1.13,1.122q-8.412,0-16.824,0a4.781,4.781,0,0,1-4.925-4.924q-.006-5.674,0-11.348c0-.883.264-1.142,1.156-1.142Z" transform="translate(-491.865 -251.831)" fill="#fff"/>
    <path id="Path_7449" data-name="Path 7449" d="M806.33,276.92q0,3.881,0,7.761c0,.328.078.725-.285.9s-.634-.106-.9-.3q-3.346-2.437-6.692-4.874a.608.608,0,0,1-.282-.563q.014-2.916,0-5.831a.607.607,0,0,1,.285-.561q3.419-2.474,6.823-4.968a1.834,1.834,0,0,1,.34-.211.44.44,0,0,1,.673.328,2.658,2.658,0,0,1,.042.6Q806.332,273.059,806.33,276.92Z" transform="translate(-765.444 -251.837)" fill="#fff"/>
  </g>
</svg>
